<mxfile host="app.diagrams.net" modified="2023-04-01T13:21:31.549Z" agent="Mozilla/5.0 (X11; Linux x86_64) AppleWebKit/537.36 (KHTML, like Gecko) Chrome/109.0.0.0 Safari/537.36" etag="RRuY34NcP6tr1OvmZCI9" version="21.1.2" type="device">
  <diagram name="Page-1" id="pbiPndR9xVuMzV0dKFEz">
    <mxGraphModel dx="1231" dy="666" grid="1" gridSize="10" guides="1" tooltips="1" connect="1" arrows="1" fold="1" page="1" pageScale="1" pageWidth="827" pageHeight="1169" math="0" shadow="0">
      <root>
        <mxCell id="0" />
        <mxCell id="1" parent="0" />
        <mxCell id="GhE1R9NZsXZZcDQX46Fv-1" value="START -&gt; Sign up or log in -&gt; Home feed -&gt; Explore -&gt; Profile -&gt; Create a post -&gt; Edit post -&gt; Add caption -&gt; Add location -&gt; Add hashtags -&gt; Tag people -&gt; Post -&gt; Like -&gt; Comment -&gt; Share -&gt; Save post -&gt; Direct messages -&gt; Search -&gt; Settings -&gt; Log out -&gt; END" style="text;whiteSpace=wrap;html=1;" vertex="1" parent="1">
          <mxGeometry x="134" y="110" width="560" height="70" as="geometry" />
        </mxCell>
        <mxCell id="GhE1R9NZsXZZcDQX46Fv-4" value="" style="edgeStyle=orthogonalEdgeStyle;rounded=0;orthogonalLoop=1;jettySize=auto;html=1;" edge="1" parent="1" source="GhE1R9NZsXZZcDQX46Fv-2" target="GhE1R9NZsXZZcDQX46Fv-3">
          <mxGeometry relative="1" as="geometry" />
        </mxCell>
        <mxCell id="GhE1R9NZsXZZcDQX46Fv-2" value="start" style="ellipse;whiteSpace=wrap;html=1;" vertex="1" parent="1">
          <mxGeometry x="428" y="210" width="79" height="40" as="geometry" />
        </mxCell>
        <mxCell id="GhE1R9NZsXZZcDQX46Fv-12" value="" style="edgeStyle=orthogonalEdgeStyle;rounded=0;orthogonalLoop=1;jettySize=auto;html=1;" edge="1" parent="1" source="GhE1R9NZsXZZcDQX46Fv-3" target="GhE1R9NZsXZZcDQX46Fv-11">
          <mxGeometry relative="1" as="geometry" />
        </mxCell>
        <mxCell id="GhE1R9NZsXZZcDQX46Fv-3" value="Login&amp;nbsp;" style="whiteSpace=wrap;html=1;" vertex="1" parent="1">
          <mxGeometry x="420" y="295" width="96" height="35" as="geometry" />
        </mxCell>
        <mxCell id="GhE1R9NZsXZZcDQX46Fv-14" value="" style="edgeStyle=orthogonalEdgeStyle;rounded=0;orthogonalLoop=1;jettySize=auto;html=1;entryX=0.479;entryY=0.2;entryDx=0;entryDy=0;entryPerimeter=0;" edge="1" parent="1" source="GhE1R9NZsXZZcDQX46Fv-11" target="GhE1R9NZsXZZcDQX46Fv-17">
          <mxGeometry relative="1" as="geometry">
            <mxPoint x="414" y="510" as="targetPoint" />
          </mxGeometry>
        </mxCell>
        <mxCell id="GhE1R9NZsXZZcDQX46Fv-21" style="edgeStyle=orthogonalEdgeStyle;rounded=0;orthogonalLoop=1;jettySize=auto;html=1;entryX=1;entryY=0.25;entryDx=0;entryDy=0;" edge="1" parent="1" source="GhE1R9NZsXZZcDQX46Fv-11" target="GhE1R9NZsXZZcDQX46Fv-3">
          <mxGeometry relative="1" as="geometry">
            <mxPoint x="574" y="300" as="targetPoint" />
            <Array as="points">
              <mxPoint x="554" y="400" />
              <mxPoint x="554" y="304" />
            </Array>
          </mxGeometry>
        </mxCell>
        <mxCell id="GhE1R9NZsXZZcDQX46Fv-11" value="is Valid" style="rhombus;whiteSpace=wrap;html=1;" vertex="1" parent="1">
          <mxGeometry x="428" y="360" width="80" height="80" as="geometry" />
        </mxCell>
        <mxCell id="GhE1R9NZsXZZcDQX46Fv-26" style="edgeStyle=orthogonalEdgeStyle;rounded=0;orthogonalLoop=1;jettySize=auto;html=1;exitX=0;exitY=0.5;exitDx=0;exitDy=0;exitPerimeter=0;" edge="1" parent="1" source="GhE1R9NZsXZZcDQX46Fv-17">
          <mxGeometry relative="1" as="geometry">
            <mxPoint x="150" y="540" as="targetPoint" />
          </mxGeometry>
        </mxCell>
        <mxCell id="GhE1R9NZsXZZcDQX46Fv-17" value="" style="line;strokeWidth=2;html=1;" vertex="1" parent="1">
          <mxGeometry x="157" y="500" width="650" height="10" as="geometry" />
        </mxCell>
        <mxCell id="GhE1R9NZsXZZcDQX46Fv-20" value="yes" style="text;html=1;align=center;verticalAlign=middle;resizable=0;points=[];autosize=1;strokeColor=none;fillColor=none;" vertex="1" parent="1">
          <mxGeometry x="410" y="450" width="40" height="30" as="geometry" />
        </mxCell>
        <mxCell id="GhE1R9NZsXZZcDQX46Fv-22" value="no" style="text;html=1;align=center;verticalAlign=middle;resizable=0;points=[];autosize=1;strokeColor=none;fillColor=none;" vertex="1" parent="1">
          <mxGeometry x="544" y="340" width="40" height="30" as="geometry" />
        </mxCell>
        <mxCell id="GhE1R9NZsXZZcDQX46Fv-27" value="Home Feed" style="whiteSpace=wrap;html=1;" vertex="1" parent="1">
          <mxGeometry x="100" y="540" width="96" height="35" as="geometry" />
        </mxCell>
        <mxCell id="GhE1R9NZsXZZcDQX46Fv-28" value="profile" style="whiteSpace=wrap;html=1;" vertex="1" parent="1">
          <mxGeometry x="210" y="540" width="96" height="35" as="geometry" />
        </mxCell>
        <mxCell id="GhE1R9NZsXZZcDQX46Fv-29" value="create a post" style="whiteSpace=wrap;html=1;" vertex="1" parent="1">
          <mxGeometry x="314" y="540" width="96" height="35" as="geometry" />
        </mxCell>
        <mxCell id="GhE1R9NZsXZZcDQX46Fv-30" value="Like - dislike post" style="whiteSpace=wrap;html=1;" vertex="1" parent="1">
          <mxGeometry x="420" y="540" width="96" height="35" as="geometry" />
        </mxCell>
        <mxCell id="GhE1R9NZsXZZcDQX46Fv-31" value="Comment&amp;nbsp;" style="whiteSpace=wrap;html=1;" vertex="1" parent="1">
          <mxGeometry x="530" y="540" width="96" height="35" as="geometry" />
        </mxCell>
        <mxCell id="GhE1R9NZsXZZcDQX46Fv-32" value="Search" style="whiteSpace=wrap;html=1;" vertex="1" parent="1">
          <mxGeometry x="640" y="540" width="96" height="35" as="geometry" />
        </mxCell>
        <mxCell id="GhE1R9NZsXZZcDQX46Fv-33" value="Follow- Unfollow" style="whiteSpace=wrap;html=1;" vertex="1" parent="1">
          <mxGeometry x="750" y="540" width="96" height="35" as="geometry" />
        </mxCell>
        <mxCell id="GhE1R9NZsXZZcDQX46Fv-34" style="edgeStyle=orthogonalEdgeStyle;rounded=0;orthogonalLoop=1;jettySize=auto;html=1;exitX=0;exitY=0.5;exitDx=0;exitDy=0;exitPerimeter=0;" edge="1" parent="1">
          <mxGeometry relative="1" as="geometry">
            <mxPoint x="254.5" y="540" as="targetPoint" />
            <mxPoint x="261.5" y="505" as="sourcePoint" />
          </mxGeometry>
        </mxCell>
        <mxCell id="GhE1R9NZsXZZcDQX46Fv-35" style="edgeStyle=orthogonalEdgeStyle;rounded=0;orthogonalLoop=1;jettySize=auto;html=1;exitX=0;exitY=0.5;exitDx=0;exitDy=0;exitPerimeter=0;" edge="1" parent="1">
          <mxGeometry relative="1" as="geometry">
            <mxPoint x="358.5" y="540" as="targetPoint" />
            <mxPoint x="365.5" y="505" as="sourcePoint" />
          </mxGeometry>
        </mxCell>
        <mxCell id="GhE1R9NZsXZZcDQX46Fv-36" style="edgeStyle=orthogonalEdgeStyle;rounded=0;orthogonalLoop=1;jettySize=auto;html=1;exitX=0;exitY=0.5;exitDx=0;exitDy=0;exitPerimeter=0;" edge="1" parent="1">
          <mxGeometry relative="1" as="geometry">
            <mxPoint x="464" y="540" as="targetPoint" />
            <mxPoint x="471" y="505" as="sourcePoint" />
          </mxGeometry>
        </mxCell>
        <mxCell id="GhE1R9NZsXZZcDQX46Fv-37" style="edgeStyle=orthogonalEdgeStyle;rounded=0;orthogonalLoop=1;jettySize=auto;html=1;exitX=0;exitY=0.5;exitDx=0;exitDy=0;exitPerimeter=0;" edge="1" parent="1">
          <mxGeometry relative="1" as="geometry">
            <mxPoint x="584" y="540" as="targetPoint" />
            <mxPoint x="591" y="505" as="sourcePoint" />
          </mxGeometry>
        </mxCell>
        <mxCell id="GhE1R9NZsXZZcDQX46Fv-38" style="edgeStyle=orthogonalEdgeStyle;rounded=0;orthogonalLoop=1;jettySize=auto;html=1;exitX=0;exitY=0.5;exitDx=0;exitDy=0;exitPerimeter=0;" edge="1" parent="1">
          <mxGeometry relative="1" as="geometry">
            <mxPoint x="687" y="540" as="targetPoint" />
            <mxPoint x="694" y="505" as="sourcePoint" />
          </mxGeometry>
        </mxCell>
        <mxCell id="GhE1R9NZsXZZcDQX46Fv-39" style="edgeStyle=orthogonalEdgeStyle;rounded=0;orthogonalLoop=1;jettySize=auto;html=1;" edge="1" parent="1">
          <mxGeometry relative="1" as="geometry">
            <mxPoint x="807" y="540" as="targetPoint" />
            <mxPoint x="802.5" y="505" as="sourcePoint" />
          </mxGeometry>
        </mxCell>
      </root>
    </mxGraphModel>
  </diagram>
</mxfile>
